<?xml version="1.0" standalone="no"?>
<!DOCTYPE svg PUBLIC "-//W3C//DTD SVG 20010904//EN"
 "http://www.w3.org/TR/2001/REC-SVG-20010904/DTD/svg10.dtd">
<svg version="1.0" xmlns="http://www.w3.org/2000/svg"
 width="736.000000pt" height="736.000000pt" viewBox="0 0 736.000000 736.000000"
 preserveAspectRatio="xMidYMid meet">
<metadata>
Created by potrace 1.11, written by Peter Selinger 2001-2013
</metadata>
<g transform="translate(0.000000,736.000000) scale(0.100000,-0.100000)"
fill="#000000" stroke="none">
<path d="M480 3680 l0 -3680 641 0 641 0 -4 25 c-3 14 -2 28 2 30 4 3 4 23 0
45 -4 22 -4 40 0 40 7 0 3 74 -5 98 -2 6 -1 12 3 12 4 0 6 24 5 52 -1 29 -3
64 -3 78 0 14 -1 39 -1 55 -2 36 -1 60 0 97 1 16 1 40 2 55 0 16 2 37 3 48 1
11 -1 35 -5 53 -4 17 -3 34 1 37 5 3 5 18 1 33 -5 15 -5 36 -1 47 4 11 4 29 0
41 -5 11 -5 27 0 34 4 7 4 25 0 40 -4 15 -4 33 0 40 4 6 4 27 0 46 -4 19 -4
36 0 39 5 3 5 18 1 33 -5 15 -5 36 -1 47 4 11 4 29 0 41 -5 11 -4 27 0 34 5 8
6 18 4 22 -7 11 -9 106 -2 113 3 3 2 23 -2 45 -4 22 -4 40 0 40 7 0 3 74 -5
98 -2 6 -1 12 3 12 4 0 7 29 7 65 0 36 -2 65 -5 65 -3 0 -4 30 -2 68 1 37 2
78 2 92 -1 14 -2 67 -3 118 -2 96 12 124 19 37 4 -52 12 -110 14 -110 1 0 3
-9 5 -20 2 -11 6 -31 9 -45 3 -14 11 -53 17 -88 7 -34 16 -62 21 -62 4 0 7 -3
6 -7 -9 -37 84 -280 164 -433 69 -129 70 -131 96 -167 12 -17 22 -34 22 -37 0
-3 6 -14 14 -23 8 -10 42 -54 74 -98 33 -44 78 -100 101 -125 23 -25 52 -56
65 -70 72 -77 258 -240 274 -240 6 0 12 -4 14 -9 6 -15 182 -128 289 -184 240
-127 496 -206 789 -244 120 -15 493 -8 584 12 12 2 37 7 56 10 72 12 97 17
190 41 52 14 104 29 115 35 12 6 27 11 35 13 8 2 29 9 45 16 17 7 38 15 48 17
30 5 259 118 323 159 80 50 168 108 174 115 3 3 23 18 45 35 99 73 221 186
305 284 25 28 52 59 61 68 25 27 104 134 124 170 11 17 23 32 27 32 4 0 8 6 8
14 0 8 6 21 13 28 26 29 133 236 167 323 13 33 29 74 36 90 13 33 48 139 46
142 0 2 5 24 13 50 18 60 41 172 50 238 3 28 8 63 11 80 5 27 15 196 15 255 1
86 -15 283 -27 343 -3 16 -7 38 -9 50 -2 12 -6 33 -9 47 -4 14 -9 39 -11 55
-19 109 -132 429 -167 473 -6 6 -8 12 -5 12 6 0 -104 199 -135 244 -90 134
-237 308 -337 400 -59 54 -110 101 -123 111 -7 6 -34 27 -60 48 -25 20 -51 37
-57 37 -6 0 -11 4 -11 8 0 5 -16 17 -35 28 -19 10 -35 22 -35 26 0 5 -4 8 -10
8 -5 0 -33 15 -62 33 -29 18 -70 42 -91 52 l-38 20 28 5 c15 3 46 3 68 0 22
-3 54 -3 72 1 18 3 34 4 37 2 8 -9 126 -8 126 0 0 5 5 5 11 2 5 -4 43 -7 82
-6 40 1 79 1 87 1 8 0 56 0 105 0 50 0 104 1 120 3 17 1 40 -1 52 -5 12 -4 25
-3 28 2 3 5 16 6 28 1 12 -4 36 -4 52 -1 17 3 40 3 52 -1 12 -5 25 -4 28 1 3
5 16 6 28 1 12 -4 36 -4 52 -1 17 3 40 3 52 -1 12 -5 25 -4 28 1 3 5 16 6 28
1 12 -4 36 -4 52 -1 17 3 40 3 52 -1 12 -5 25 -4 28 1 3 5 12 7 20 4 21 -8
115 -10 115 -2 0 3 10 4 23 0 18 -4 20 -3 11 9 -37 48 -191 241 -222 278 -20
24 -41 50 -46 59 -5 8 -19 27 -32 41 -12 14 -83 103 -158 196 -74 94 -139 175
-144 180 -4 6 -44 55 -88 110 -44 55 -87 109 -96 120 -10 11 -292 364 -628
785 -336 421 -624 781 -640 800 -60 73 -358 447 -392 492 l-36 47 -23 -27
c-13 -15 -63 -77 -111 -137 -49 -61 -155 -194 -237 -297 -82 -104 -157 -195
-165 -204 -9 -8 -16 -19 -16 -22 0 -4 -10 -18 -23 -32 -12 -14 -58 -70 -101
-125 -43 -55 -85 -105 -92 -111 -8 -6 -14 -14 -14 -18 0 -6 -61 -85 -95 -121
-5 -7 -23 -29 -40 -50 -64 -82 -190 -240 -195 -245 -3 -3 -77 -95 -164 -205
-87 -110 -174 -220 -194 -244 -21 -24 -41 -50 -46 -58 -4 -8 -16 -23 -25 -32
-9 -9 -27 -32 -41 -51 -14 -18 -30 -38 -35 -44 -6 -6 -57 -69 -113 -141 -114
-144 -137 -172 -170 -212 -40 -50 -44 -55 -80 -102 -19 -25 -42 -53 -51 -62
-9 -9 -25 -29 -36 -45 -26 -35 -54 -70 -82 -101 -13 -13 -23 -27 -23 -31 0 -4
-17 -25 -36 -47 -29 -32 -35 -35 -31 -17 3 12 1 22 -4 22 -6 0 -6 6 -1 15 4 9
5 38 2 66 -4 27 -4 51 -2 54 3 3 4 31 3 62 -1 32 -2 65 -1 73 0 8 0 29 -1 45
-2 34 -2 58 0 98 1 15 1 39 2 55 0 15 2 36 3 47 1 11 -1 35 -5 53 -4 17 -3 34
1 37 5 3 5 18 1 33 -5 15 -5 36 -1 47 4 11 4 29 0 41 -5 11 -5 27 0 34 4 7 4
25 0 40 -4 15 -4 33 0 40 4 6 4 27 0 45 -4 18 -4 39 0 45 4 7 4 26 0 41 -5 16
-5 31 0 34 5 3 5 18 1 33 -5 15 -5 36 -1 47 4 11 4 32 -1 47 -4 15 -4 30 1 33
4 3 4 20 0 39 -4 19 -4 40 0 46 4 7 4 26 0 41 -5 16 -5 31 0 34 5 3 5 18 1 33
-5 15 -5 36 -1 47 4 11 5 25 3 31 -7 19 -9 95 -2 100 3 2 3 22 -1 44 -4 22 -4
40 0 40 7 0 3 74 -5 98 -2 6 -1 12 3 12 4 0 6 24 5 52 -3 56 -3 87 -3 128 0
14 -2 34 -4 45 -2 11 0 32 4 46 4 15 4 32 0 39 -4 7 -4 24 -1 39 4 14 4 41 0
59 -4 17 -3 34 1 37 4 2 4 23 0 45 -4 22 -4 40 0 40 7 0 3 74 -5 98 -2 6 -1
12 3 12 4 0 6 24 5 52 -1 29 -3 64 -3 78 0 14 -1 39 -1 55 -2 36 -1 60 0 98 1
15 1 38 1 52 0 13 1 30 2 37 2 11 -120 13 -639 16 l-643 2 0 -3680z m2118 556
c125 0 233 3 240 8 7 4 12 3 12 -1 0 -9 74 -8 88 1 4 2 14 1 21 -3 9 -6 -14
-24 -71 -56 -222 -127 -435 -305 -599 -500 -19 -22 -38 -45 -44 -51 -5 -6 -17
-22 -25 -34 -8 -12 -20 -28 -25 -34 -53 -59 -279 -456 -259 -456 4 0 2 -6 -4
-12 -11 -15 -71 -180 -78 -217 -3 -14 -7 -28 -10 -33 -3 -4 -7 -16 -9 -26 -1
-9 -9 -37 -15 -62 -7 -25 -14 -58 -17 -75 -10 -84 -27 -165 -35 -165 -9 0 -10
13 -8 90 2 67 1 79 -3 105 -2 11 -1 32 3 46 4 15 4 32 0 39 -4 7 -4 24 -1 39
4 14 4 41 0 59 -4 17 -3 34 1 37 4 2 4 23 0 45 -4 22 -4 40 0 40 7 0 3 74 -5
98 -2 6 -1 12 3 12 4 0 6 24 5 52 -1 29 -3 64 -3 78 0 14 -1 39 -1 55 -2 36
-1 60 0 98 1 15 1 39 2 55 0 15 2 36 3 47 1 11 -1 34 -5 51 -3 18 -3 38 1 44
4 7 4 26 0 41 -5 16 -5 31 0 34 5 3 5 18 1 33 -5 15 -5 36 -1 47 4 11 4 32 -1
47 -4 15 -4 30 1 33 4 3 4 20 0 39 -4 19 -4 40 0 46 4 7 4 26 0 41 -5 16 -5
31 0 34 5 3 5 18 1 33 -5 15 -5 36 -1 47 4 11 4 30 1 42 -3 13 -5 43 -3 66 l4
43 295 0 c176 -1 297 3 301 9 4 6 7 6 9 0 2 -6 95 -10 231 -9z m-822 -1742
c-3 -9 -6 -23 -6 -32 0 -14 -2 -14 -9 -3 -10 16 -3 51 11 51 6 0 7 -7 4 -16z
m-9 -446 c-3 -8 -6 -5 -6 6 -1 11 2 17 5 13 3 -3 4 -12 1 -19z"/>
</g>
</svg>
